<svg xmlns="http://www.w3.org/2000/svg" viewBox="0 0 589 74"><g transform="translate(18 2) skewX(-12)"><path transform="translate(18 0)" fill="#F5EFE4" fill-rule="evenodd" d="M0 0H58V17H21V29H48V46H21V70H0Z"/><path transform="translate(85 0)" fill="#F5EFE4" fill-rule="evenodd" d="M0 0H22V51H56V70H0Z"/><path transform="translate(152 0)" fill="#F5EFE4" fill-rule="evenodd" d="M8 0H52L60 8V62L52 70H8L0 62V8ZM21 18V52H39V18Z"/><path transform="translate(219 0)" fill="#F5EFE4" fill-rule="evenodd" d="M0 0H20L23 43L32 18H48L51 43L61 0H81L62 70H43L38 42L28 70H9Z"/><path transform="translate(306 0)" fill="#0068C9" fill-rule="evenodd" d="M0 0H48L58 10V28L51 35L58 42V60L48 70H0ZM21 16V27H37V16ZM21 43V54H37V43Z"/><path transform="translate(373 0)" fill="#FF9419" fill-rule="evenodd" d="M14 0H48L63 70H41L38 54H22L19 70H0ZM28 19L25 37H35L32 19Z"/><path transform="translate(440 0)" fill="#00AB5D" fill-rule="evenodd" d="M0 0H22V51H56V70H0Z"/><path transform="translate(507 0)" fill="#9227CE" fill-rule="evenodd" d="M0 0H22V51H56V70H0Z"/></g></svg>